<svg width="16" height="16" viewBox="0 0 16 16" fill="none" xmlns="http://www.w3.org/2000/svg">
    <path d="M8.14058 1C8.61539 1.00031 9.08911 1.04727 9.55485 1.14021C6.57579 1.58774 3.83447 3.03297 1.77519 5.24165C2.79192 2.78032 5.33314 1.0271 8.00805 1H8.14058Z" fill="#002882"/>
    <path d="M12.4395 2.72318C12.7303 2.74792 13.0516 3.0684 12.5509 3.89316C11.9259 4.92412 8.15214 7.61523 1.39155 8.63554C1.36379 8.63966 1.33736 8.64423 1.31234 8.64855C1.14399 8.67765 1.03921 8.69577 1.01981 8.49067C0.990493 8.18309 0.956486 7.43259 1.21682 7.10149C2.06879 6.2042 3.03389 5.42269 4.08757 4.77684C6.19804 3.48056 8.60997 2.7631 11.0827 2.69608H11.4427C11.4708 2.69432 11.499 2.69432 11.5271 2.69608C11.5947 2.69674 11.6576 2.69711 11.7174 2.69746C11.9775 2.699 12.1782 2.70019 12.4395 2.72318Z" fill="#002882"/>
    <path d="M14.9316 6.41109C14.7991 5.75953 14.3523 5.44022 13.8679 5.54862C13.6679 5.59369 13.4257 5.80237 13.0706 6.10848C12.2744 6.79462 10.9104 7.97025 8.17921 8.89008C6.00003 9.61447 3.68232 9.81623 1.41161 9.47919C1.2791 9.46157 1.23219 9.54169 1.25916 9.70075C1.36353 10.3004 1.82909 11.7038 2.41191 11.9205C4.36529 12.598 6.46244 12.7436 8.48997 12.3423C10.1184 12.023 11.6628 11.3666 13.0248 10.4147C14.6665 9.18347 15.199 7.70481 14.9362 6.40874L14.9316 6.41109Z" fill="#002882"/>
    <path d="M3.26204 12.9558L3.263 12.9568L3.26087 12.9558H3.26204Z" fill="#002882"/>
    <path d="M3.263 12.9568C4.74876 13.6317 6.36096 13.9796 7.99152 13.9773C9.86961 13.9802 11.7204 13.5263 13.3859 12.6541C12.7284 13.3932 11.9229 13.9843 11.0222 14.3885C10.1214 14.7928 9.14577 15.0012 8.15918 15C7.24902 15.0011 6.34763 14.821 5.5071 14.4701C4.66698 14.1194 3.90429 13.605 3.263 12.9568Z" fill="#002882"/>
</svg>
